<svg xmlns="http://www.w3.org/2000/svg" xmlns:xlink="http://www.w3.org/1999/xlink" width="300" zoomAndPan="magnify" viewBox="0 0 224.87999 74.999997" height="100" preserveAspectRatio="xMidYMid meet" version="1.0"><path fill="#ffffff" d="M 25.425781 52.703125 C 18.738281 52.703125 13.777344 49.285156 12.636719 43.664062 C 12.546875 43.21875 12.910156 42.808594 13.363281 42.808594 L 16.75 42.808594 C 17.089844 42.808594 17.371094 43.046875 17.460938 43.367188 C 18.332031 46.40625 21.5 48.253906 25.425781 48.253906 C 29.925781 48.253906 32.679688 46.0625 32.679688 43.535156 C 32.679688 41.507812 31.894531 39.992188 24.808594 39.035156 C 17.78125 38.023438 13.511719 36.339844 13.511719 30.886719 C 13.511719 26.726562 17.113281 22.285156 24.867188 22.285156 C 31.21875 22.285156 35.589844 25.324219 36.546875 30.488281 C 36.625 30.925781 36.265625 31.332031 35.8125 31.332031 L 32.398438 31.332031 C 32.066406 31.332031 31.789062 31.105469 31.695312 30.789062 C 30.828125 28.058594 28.195312 26.667969 24.867188 26.667969 C 21.042969 26.667969 18.292969 28.464844 18.292969 30.714844 C 18.292969 32.796875 19.921875 33.523438 25.597656 34.421875 C 32.007812 35.4375 37.289062 36.671875 37.289062 43.25 C 37.289062 49.039062 32.347656 52.691406 25.425781 52.691406 Z M 25.425781 52.703125 " fill-opacity="1" fill-rule="nonzero"/><path fill="#ffffff" d="M 56.585938 52.644531 C 53.160156 52.644531 50.113281 51.117188 47.984375 49.011719 C 47.527344 48.558594 46.75 48.902344 46.75 49.546875 L 46.75 64.105469 C 46.75 64.511719 46.417969 64.84375 46.011719 64.84375 L 42.703125 64.84375 C 42.296875 64.84375 41.964844 64.511719 41.964844 64.105469 L 41.964844 22.9375 C 41.964844 22.53125 42.296875 22.199219 42.703125 22.199219 L 45.839844 22.199219 C 46.246094 22.199219 46.578125 22.53125 46.578125 22.9375 L 46.578125 25.59375 C 46.578125 26.246094 47.375 26.582031 47.824219 26.113281 C 49.953125 23.917969 53.078125 22.292969 56.582031 22.292969 C 64.902344 22.292969 71.023438 29.097656 71.023438 37.410156 C 71.023438 45.726562 64.894531 52.644531 56.582031 52.644531 Z M 56.585938 26.675781 C 51.246094 26.675781 46.75 31.511719 46.75 37.410156 C 46.75 43.3125 51.246094 48.261719 56.585938 48.261719 C 61.925781 48.261719 66.253906 43.367188 66.253906 37.410156 C 66.253906 31.453125 61.976562 26.675781 56.585938 26.675781 Z M 56.585938 26.675781 " fill-opacity="1" fill-rule="nonzero"/><path fill="#ffffff" d="M 103.164062 42.972656 C 103.671875 42.972656 104.042969 43.488281 103.855469 43.964844 C 101.648438 49.53125 96.878906 52.644531 90.554688 52.644531 C 82.234375 52.644531 75.71875 46.011719 75.71875 37.527344 C 75.71875 29.039062 82.234375 22.292969 90.277344 22.292969 C 97.566406 22.292969 104.589844 28.175781 104.878906 38 C 104.890625 38.414062 104.546875 38.761719 104.136719 38.761719 L 81.398438 38.761719 C 80.953125 38.761719 80.59375 39.164062 80.667969 39.601562 C 81.613281 45.101562 86.007812 48.316406 90.554688 48.316406 C 94.492188 48.316406 97.34375 46.511719 98.957031 43.386719 C 99.082031 43.140625 99.328125 42.980469 99.605469 42.980469 L 103.164062 42.980469 Z M 98.613281 34.488281 C 99.128906 34.488281 99.476562 33.972656 99.304688 33.484375 C 97.851562 29.324219 94.183594 26.617188 90.277344 26.617188 C 86.367188 26.617188 82.652344 29.148438 81.132812 33.484375 C 80.960938 33.972656 81.304688 34.492188 81.824219 34.492188 L 98.613281 34.492188 Z M 98.613281 34.488281 " fill-opacity="1" fill-rule="nonzero"/><path fill="#ffffff" d="M 137.019531 42.972656 C 137.527344 42.972656 137.898438 43.488281 137.710938 43.964844 C 135.503906 49.53125 130.734375 52.644531 124.410156 52.644531 C 116.089844 52.644531 109.574219 46.011719 109.574219 37.527344 C 109.574219 29.039062 116.089844 22.292969 124.132812 22.292969 C 131.421875 22.292969 138.445312 28.175781 138.734375 38 C 138.746094 38.414062 138.402344 38.761719 137.992188 38.761719 L 115.253906 38.761719 C 114.808594 38.761719 114.449219 39.164062 114.523438 39.601562 C 115.46875 45.101562 119.863281 48.316406 124.410156 48.316406 C 128.347656 48.316406 131.199219 46.511719 132.8125 43.386719 C 132.9375 43.140625 133.183594 42.980469 133.460938 42.980469 L 137.019531 42.980469 Z M 132.46875 34.488281 C 132.984375 34.488281 133.332031 33.972656 133.160156 33.484375 C 131.707031 29.324219 128.039062 26.617188 124.132812 26.617188 C 120.222656 26.617188 116.507812 29.148438 114.988281 33.484375 C 114.816406 33.972656 115.15625 34.492188 115.679688 34.492188 L 132.46875 34.492188 Z M 132.46875 34.488281 " fill-opacity="1" fill-rule="nonzero"/><path fill="#ffffff" d="M 157.929688 52.644531 C 149.945312 52.644531 143.429688 45.898438 143.429688 37.527344 C 143.429688 29.152344 149.945312 22.292969 157.929688 22.292969 C 164 22.292969 168.835938 25.664062 171.027344 30.921875 C 171.234375 31.414062 170.890625 31.964844 170.351562 31.964844 L 166.730469 31.964844 C 166.46875 31.964844 166.226562 31.8125 166.09375 31.585938 C 164.425781 28.65625 161.539062 26.847656 157.921875 26.847656 C 152.585938 26.847656 148.199219 31.683594 148.199219 37.527344 C 148.199219 43.367188 152.585938 48.09375 157.921875 48.09375 C 161.585938 48.09375 164.476562 46.285156 166.09375 43.363281 C 166.226562 43.128906 166.46875 42.980469 166.730469 42.980469 L 170.351562 42.980469 C 170.886719 42.980469 171.226562 43.523438 171.027344 44.015625 C 168.875 49.273438 163.996094 52.648438 157.917969 52.648438 Z M 157.929688 52.644531 " fill-opacity="1" fill-rule="nonzero"/><path fill="#ffffff" d="M 199.539062 52.644531 L 196.289062 52.644531 C 195.882812 52.644531 195.550781 52.3125 195.550781 51.90625 L 195.550781 34.371094 C 195.550781 29.875 192.90625 26.785156 188.464844 26.785156 C 184.023438 26.785156 180.875 29.929688 180.875 34.257812 L 180.875 51.902344 C 180.875 52.308594 180.542969 52.640625 180.136719 52.640625 L 176.832031 52.640625 C 176.425781 52.640625 176.09375 52.308594 176.09375 51.902344 L 176.09375 10.886719 C 176.09375 10.480469 176.425781 10.148438 176.832031 10.148438 L 180.136719 10.148438 C 180.542969 10.148438 180.875 10.480469 180.875 10.886719 L 180.875 24.203125 C 180.875 24.839844 181.609375 25.160156 182.101562 24.753906 C 183.960938 23.214844 186.363281 22.292969 189.140625 22.292969 C 196.226562 22.292969 200.269531 27.351562 200.269531 34.542969 L 200.269531 51.90625 C 200.269531 52.3125 199.9375 52.644531 199.53125 52.644531 Z M 199.539062 52.644531 " fill-opacity="1" fill-rule="nonzero"/><path fill="#ffffff" d="M 208.996094 16.570312 L 205.691406 16.570312 C 205.285156 16.570312 204.953125 16.238281 204.953125 15.832031 L 204.953125 10.886719 C 204.953125 10.480469 205.285156 10.148438 205.691406 10.148438 L 208.996094 10.148438 C 209.402344 10.148438 209.734375 10.480469 209.734375 10.886719 L 209.734375 15.835938 C 209.734375 16.242188 209.402344 16.574219 208.996094 16.574219 Z M 208.996094 52.644531 L 205.691406 52.644531 C 205.285156 52.644531 204.953125 52.3125 204.953125 51.90625 L 204.953125 22.9375 C 204.953125 22.53125 205.285156 22.199219 205.691406 22.199219 L 208.996094 22.199219 C 209.402344 22.199219 209.734375 22.53125 209.734375 22.9375 L 209.734375 51.914062 C 209.734375 52.320312 209.402344 52.648438 208.996094 52.648438 Z M 208.996094 52.644531 " fill-opacity="1" fill-rule="nonzero"/></svg>