<svg xmlns="http://www.w3.org/2000/svg" xmlns:xlink="http://www.w3.org/1999/xlink" width="300" zoomAndPan="magnify" viewBox="0 0 224.87999 74.999997" height="100" preserveAspectRatio="xMidYMid meet" version="1.0"><path fill="#ffffff" d="M 72.59375 23.222656 L 46.292969 51.664062 L 66.546875 51.664062 L 64.921875 59.195312 L 31.554688 59.195312 L 32.683594 53.867188 L 59.335938 25.601562 L 40.25 25.601562 L 41.875 18.039062 L 73.722656 18.039062 Z M 72.59375 23.222656 " fill-opacity="1" fill-rule="nonzero"/><path fill="#ffffff" d="M 96.488281 37.390625 C 96.488281 38.917969 96.167969 40.300781 95.53125 41.546875 C 94.898438 42.824219 93.800781 43.890625 92.28125 44.8125 C 90.761719 45.734375 88.746094 46.445312 86.238281 46.976562 C 83.726562 47.511719 80.617188 47.796875 76.871094 47.867188 C 76.835938 47.972656 76.796875 48.078125 76.796875 48.148438 L 76.796875 48.433594 C 76.796875 49.039062 76.90625 49.605469 77.082031 50.210938 C 77.257812 50.8125 77.613281 51.347656 78.070312 51.808594 C 78.53125 52.269531 79.167969 52.660156 79.945312 52.980469 C 80.722656 53.265625 81.675781 53.441406 82.84375 53.441406 C 83.550781 53.441406 84.292969 53.371094 85.105469 53.265625 C 85.917969 53.15625 86.765625 52.945312 87.613281 52.730469 C 88.464844 52.484375 89.3125 52.199219 90.160156 51.878906 C 91.007812 51.558594 91.785156 51.167969 92.492188 50.777344 L 91.078125 57.558594 C 90.476562 57.878906 89.808594 58.164062 89.027344 58.449219 C 88.25 58.730469 87.4375 58.980469 86.519531 59.230469 C 85.636719 59.441406 84.679688 59.65625 83.65625 59.761719 C 82.632812 59.902344 81.605469 59.976562 80.546875 59.976562 C 78.320312 59.976562 76.375 59.65625 74.785156 58.980469 C 73.191406 58.304688 71.851562 57.453125 70.824219 56.351562 C 69.800781 55.253906 69.023438 53.972656 68.5625 52.484375 C 68.101562 50.992188 67.820312 49.429688 67.820312 47.757812 C 67.820312 45.238281 68.246094 42.859375 69.09375 40.621094 C 69.941406 38.386719 71.144531 36.394531 72.664062 34.691406 C 74.183594 32.988281 76.09375 31.636719 78.285156 30.644531 C 80.476562 29.648438 82.914062 29.152344 85.601562 29.152344 C 87.542969 29.152344 89.207031 29.402344 90.585938 29.828125 C 91.960938 30.289062 93.058594 30.890625 93.941406 31.671875 C 94.824219 32.453125 95.460938 33.34375 95.851562 34.335938 C 96.273438 35.261719 96.488281 36.289062 96.488281 37.390625 Z M 87.792969 37.496094 C 87.792969 36.785156 87.507812 36.183594 86.980469 35.722656 C 86.449219 35.261719 85.707031 35.011719 84.753906 35.011719 C 83.902344 35.011719 83.089844 35.1875 82.3125 35.542969 C 81.535156 35.898438 80.828125 36.394531 80.15625 37.070312 C 79.519531 37.710938 78.953125 38.492188 78.496094 39.378906 C 78.035156 40.265625 77.683594 41.226562 77.46875 42.253906 C 80.933594 42.292969 83.515625 41.902344 85.246094 41.082031 C 86.945312 40.265625 87.792969 39.058594 87.792969 37.496094 Z M 127.167969 36.785156 C 127.167969 37.070312 127.132812 37.460938 127.0625 37.921875 C 126.992188 38.386719 126.921875 38.882812 126.851562 39.414062 C 126.78125 39.910156 126.675781 40.445312 126.566406 40.90625 C 126.460938 41.402344 126.390625 41.792969 126.320312 42.148438 L 122.714844 59.121094 L 113.558594 59.121094 L 117.09375 42.433594 C 117.199219 41.828125 117.308594 41.191406 117.449219 40.550781 C 117.554688 39.910156 117.625 39.414062 117.625 39.058594 C 117.625 38.136719 117.378906 37.390625 116.917969 36.859375 C 116.457031 36.324219 115.75 36.042969 114.796875 36.042969 C 114.019531 36.042969 113.171875 36.289062 112.324219 36.785156 C 111.476562 37.285156 110.660156 37.921875 109.917969 38.738281 C 109.175781 39.558594 108.503906 40.480469 107.941406 41.511719 C 107.375 42.539062 106.984375 43.605469 106.738281 44.707031 L 103.664062 59.230469 L 94.367188 59.230469 L 98.75 39.09375 C 98.925781 38.207031 99.101562 37.320312 99.28125 36.433594 C 99.457031 35.542969 99.597656 34.691406 99.738281 33.875 C 99.878906 33.058594 99.988281 32.3125 100.09375 31.601562 C 100.199219 30.890625 100.269531 30.324219 100.339844 29.828125 L 109.355469 29.828125 C 109.28125 30.359375 109.246094 30.929688 109.175781 31.496094 C 109.105469 32.0625 109.035156 32.632812 108.964844 33.164062 C 108.894531 33.699219 108.824219 34.160156 108.789062 34.585938 C 108.753906 35.011719 108.683594 35.296875 108.648438 35.472656 L 108.753906 35.472656 C 109.425781 34.585938 110.203125 33.769531 111.050781 32.988281 C 111.898438 32.207031 112.816406 31.53125 113.738281 30.964844 C 114.691406 30.394531 115.679688 29.933594 116.707031 29.613281 C 117.730469 29.292969 118.757812 29.117188 119.78125 29.117188 C 122.21875 29.117188 124.058594 29.792969 125.332031 31.140625 C 126.53125 32.453125 127.167969 34.371094 127.167969 36.785156 Z M 159.546875 36.785156 C 159.546875 37.070312 159.511719 37.460938 159.441406 37.921875 C 159.371094 38.386719 159.300781 38.882812 159.230469 39.414062 C 159.121094 39.910156 159.050781 40.445312 158.945312 40.90625 C 158.839844 41.402344 158.769531 41.792969 158.699219 42.148438 L 155.09375 59.121094 L 145.9375 59.121094 L 149.507812 42.363281 C 149.613281 41.757812 149.71875 41.121094 149.863281 40.480469 C 149.96875 39.839844 150.039062 39.34375 150.039062 38.988281 C 150.039062 38.066406 149.792969 37.320312 149.332031 36.785156 C 148.871094 36.253906 148.164062 35.96875 147.210938 35.96875 C 146.433594 35.96875 145.585938 36.21875 144.738281 36.714844 C 143.886719 37.214844 143.074219 37.851562 142.332031 38.667969 C 141.589844 39.484375 140.917969 40.410156 140.355469 41.4375 C 139.789062 42.46875 139.398438 43.535156 139.152344 44.632812 L 136.078125 59.160156 L 126.78125 59.160156 L 131.164062 39.023438 C 131.339844 38.136719 131.515625 37.25 131.695312 36.359375 C 131.871094 35.472656 132.011719 34.621094 132.152344 33.804688 C 132.292969 32.988281 132.398438 32.242188 132.507812 31.53125 C 132.613281 30.820312 132.683594 30.253906 132.753906 29.757812 L 141.765625 29.757812 C 141.695312 30.289062 141.660156 30.855469 141.589844 31.425781 C 141.519531 31.992188 141.449219 32.5625 141.378906 33.09375 C 141.308594 33.625 141.238281 34.089844 141.203125 34.515625 C 141.167969 34.941406 141.097656 35.222656 141.058594 35.402344 L 141.167969 35.402344 C 141.839844 34.515625 142.617188 33.699219 143.464844 32.917969 C 144.3125 32.136719 145.230469 31.460938 146.152344 30.890625 C 147.070312 30.324219 148.09375 29.863281 149.121094 29.542969 C 150.144531 29.222656 151.167969 29.046875 152.195312 29.046875 C 154.632812 29.046875 156.472656 29.71875 157.746094 31.070312 C 158.945312 32.453125 159.546875 34.371094 159.546875 36.785156 Z M 177.148438 20.347656 C 177.148438 21.089844 177.007812 21.765625 176.726562 22.371094 C 176.441406 22.972656 176.054688 23.46875 175.558594 23.898438 C 175.066406 24.324219 174.5 24.640625 173.828125 24.890625 C 173.15625 25.105469 172.449219 25.246094 171.671875 25.246094 C 170.929688 25.246094 170.257812 25.140625 169.621094 24.925781 C 168.984375 24.714844 168.453125 24.394531 167.996094 24.003906 C 167.535156 23.613281 167.183594 23.152344 166.933594 22.617188 C 166.6875 22.085938 166.546875 21.515625 166.546875 20.878906 C 166.546875 20.132812 166.6875 19.457031 166.96875 18.855469 C 167.253906 18.25 167.640625 17.753906 168.136719 17.328125 C 168.632812 16.902344 169.195312 16.582031 169.902344 16.332031 C 170.609375 16.085938 171.316406 15.976562 172.09375 15.976562 C 172.835938 15.976562 173.507812 16.085938 174.109375 16.296875 C 174.710938 16.511719 175.277344 16.832031 175.699219 17.222656 C 176.160156 17.613281 176.515625 18.074219 176.761719 18.605469 C 177.042969 19.101562 177.148438 19.707031 177.148438 20.347656 Z M 174.144531 58.910156 C 173.792969 59.015625 173.402344 59.085938 172.945312 59.195312 C 172.484375 59.300781 172.023438 59.371094 171.496094 59.476562 C 171 59.585938 170.46875 59.621094 169.902344 59.691406 C 169.339844 59.726562 168.808594 59.761719 168.277344 59.761719 C 167.003906 59.761719 165.875 59.585938 164.957031 59.265625 C 164.035156 58.945312 163.292969 58.449219 162.691406 57.84375 C 162.09375 57.242188 161.667969 56.53125 161.386719 55.679688 C 161.101562 54.863281 160.960938 53.9375 160.960938 52.945312 C 160.960938 52.519531 160.996094 52.054688 161.03125 51.523438 C 161.066406 50.992188 161.136719 50.457031 161.207031 49.890625 C 161.277344 49.320312 161.386719 48.753906 161.492188 48.1875 C 161.597656 47.617188 161.703125 47.050781 161.808594 46.515625 C 161.878906 46.195312 162.023438 45.59375 162.199219 44.707031 C 162.375 43.855469 162.585938 42.824219 162.835938 41.722656 C 163.082031 40.621094 163.328125 39.414062 163.613281 38.136719 C 163.894531 36.894531 164.140625 35.6875 164.390625 34.550781 C 164.636719 33.414062 164.847656 32.417969 165.027344 31.53125 C 165.203125 30.644531 165.34375 30.074219 165.414062 29.757812 L 174.675781 29.757812 L 171.140625 46.269531 C 171 46.941406 170.824219 47.6875 170.644531 48.503906 C 170.46875 49.320312 170.398438 50.066406 170.398438 50.671875 C 170.398438 51.417969 170.609375 51.914062 171.105469 52.199219 C 171.566406 52.484375 172.09375 52.625 172.695312 52.625 C 173.191406 52.625 173.722656 52.554688 174.214844 52.484375 C 174.710938 52.375 175.207031 52.234375 175.628906 52.054688 C 175.382812 53.191406 175.136719 54.328125 174.921875 55.464844 C 174.640625 56.636719 174.394531 57.773438 174.144531 58.910156 Z M 206.734375 41.4375 C 206.734375 42.789062 206.59375 44.207031 206.3125 45.628906 C 206.027344 47.050781 205.605469 48.46875 205.039062 49.820312 C 204.472656 51.167969 203.695312 52.484375 202.8125 53.691406 C 201.929688 54.898438 200.796875 55.960938 199.488281 56.886719 C 198.183594 57.808594 196.699219 58.519531 194.964844 59.050781 C 193.269531 59.585938 191.324219 59.867188 189.132812 59.867188 C 186.941406 59.867188 185.03125 59.550781 183.40625 58.910156 C 181.78125 58.269531 180.4375 57.417969 179.378906 56.316406 C 178.316406 55.21875 177.539062 53.902344 177.007812 52.375 C 176.480469 50.847656 176.230469 49.214844 176.230469 47.441406 C 176.230469 46.019531 176.371094 44.597656 176.65625 43.109375 C 176.9375 41.617188 177.398438 40.230469 178 38.882812 C 178.597656 37.53125 179.378906 36.253906 180.332031 35.046875 C 181.285156 33.839844 182.417969 32.808594 183.726562 31.921875 C 185.03125 31.035156 186.515625 30.324219 188.214844 29.828125 C 189.910156 29.292969 191.785156 29.046875 193.90625 29.046875 C 195.957031 29.046875 197.792969 29.328125 199.382812 29.933594 C 200.972656 30.5 202.316406 31.355469 203.414062 32.417969 C 204.507812 33.484375 205.320312 34.796875 205.886719 36.324219 C 206.453125 37.886719 206.734375 39.59375 206.734375 41.4375 Z M 197.511719 41.582031 C 197.511719 40.765625 197.40625 40.054688 197.226562 39.34375 C 197.050781 38.667969 196.769531 38.066406 196.378906 37.605469 C 195.992188 37.140625 195.53125 36.714844 195 36.46875 C 194.46875 36.183594 193.835938 36.042969 193.128906 36.042969 C 191.925781 36.042969 190.828125 36.394531 189.875 37.070312 C 188.921875 37.746094 188.109375 38.632812 187.472656 39.734375 C 186.800781 40.835938 186.304688 42.042969 185.953125 43.390625 C 185.597656 44.742188 185.421875 46.125 185.421875 47.476562 C 185.421875 49.214844 185.847656 50.566406 186.660156 51.523438 C 187.472656 52.484375 188.53125 52.945312 189.839844 52.945312 C 191.078125 52.945312 192.207031 52.625 193.164062 51.949219 C 194.117188 51.273438 194.929688 50.421875 195.566406 49.320312 C 196.203125 48.257812 196.699219 47.015625 197.015625 45.664062 C 197.367188 44.316406 197.511719 42.929688 197.511719 41.582031 Z M 197.511719 41.582031 " fill-opacity="1" fill-rule="evenodd"/><path fill="#ffffff" d="M 35.335938 24.605469 C 35.335938 29.257812 31.519531 33.058594 26.816406 33.058594 C 22.117188 33.058594 18.296875 29.257812 18.296875 24.605469 C 18.296875 19.957031 22.117188 16.15625 26.816406 16.15625 C 31.519531 16.15625 35.335938 19.957031 35.335938 24.605469 Z M 19.890625 37.640625 C 19.890625 40.445312 17.589844 42.71875 14.765625 42.71875 C 11.9375 42.753906 9.636719 40.445312 9.636719 37.640625 C 9.636719 34.832031 11.9375 32.5625 14.765625 32.5625 C 17.589844 32.5625 19.890625 34.832031 19.890625 37.640625 Z M 19.890625 37.640625 " fill-opacity="1" fill-rule="nonzero"/><path fill="#ffffff" d="M 209.492188 32.597656 C 208.539062 32.597656 207.726562 32.242188 207.019531 31.566406 C 206.3125 30.929688 205.957031 30.109375 205.957031 29.117188 C 205.957031 28.15625 206.3125 27.304688 207.019531 26.632812 C 207.726562 25.957031 208.574219 25.636719 209.492188 25.636719 C 210.484375 25.636719 211.296875 25.957031 212.003906 26.632812 C 212.675781 27.339844 213.027344 28.195312 213.027344 29.117188 C 213.027344 30.074219 212.675781 30.929688 212.039062 31.566406 C 211.296875 32.242188 210.484375 32.597656 209.492188 32.597656 Z M 209.492188 26.132812 C 208.679688 26.132812 208.007812 26.417969 207.371094 26.984375 C 206.769531 27.554688 206.488281 28.265625 206.488281 29.117188 C 206.488281 29.96875 206.769531 30.644531 207.371094 31.175781 C 207.972656 31.78125 208.679688 32.0625 209.492188 32.0625 C 210.339844 32.0625 211.011719 31.78125 211.613281 31.175781 C 212.179688 30.609375 212.460938 29.933594 212.460938 29.082031 C 212.460938 28.265625 212.179688 27.554688 211.613281 26.949219 C 211.011719 26.382812 210.339844 26.132812 209.492188 26.132812 Z M 209.492188 26.132812 " fill-opacity="1" fill-rule="nonzero"/><path fill="#ffffff" d="M 211.507812 31.105469 L 210.800781 31.105469 L 209.421875 29.472656 L 208.644531 29.472656 L 208.644531 31.105469 L 208.078125 31.105469 L 208.078125 26.984375 L 209.246094 26.984375 C 209.492188 26.984375 209.707031 26.984375 209.882812 27.023438 C 210.058594 27.058594 210.199219 27.128906 210.339844 27.199219 C 210.484375 27.304688 210.625 27.414062 210.695312 27.554688 C 210.765625 27.695312 210.835938 27.875 210.835938 28.085938 C 210.835938 28.371094 210.765625 28.621094 210.625 28.832031 C 210.484375 29.046875 210.269531 29.1875 209.988281 29.292969 Z M 210.199219 28.121094 C 210.199219 28.015625 210.164062 27.910156 210.128906 27.804688 C 210.09375 27.695312 210.023438 27.625 209.917969 27.554688 C 209.847656 27.484375 209.742188 27.449219 209.632812 27.449219 C 209.527344 27.449219 209.386719 27.414062 209.246094 27.414062 L 208.609375 27.414062 L 208.609375 28.976562 L 209.175781 28.976562 C 209.351562 28.976562 209.492188 28.976562 209.632812 28.9375 C 209.777344 28.902344 209.882812 28.832031 209.953125 28.761719 C 210.023438 28.691406 210.09375 28.585938 210.128906 28.476562 C 210.199219 28.40625 210.199219 28.300781 210.199219 28.121094 Z M 210.199219 28.121094 " fill-opacity="1" fill-rule="nonzero"/></svg>