<svg xmlns="http://www.w3.org/2000/svg" xmlns:xlink="http://www.w3.org/1999/xlink" width="300" zoomAndPan="magnify" viewBox="0 0 224.87999 74.999997" height="100" preserveAspectRatio="xMidYMid meet" version="1.0"><defs><filter x="0%" y="0%" width="100%" height="100%" id="0f12b5ee99"><feColorMatrix values="0 0 0 0 1 0 0 0 0 1 0 0 0 0 1 0 0 0 1 0" color-interpolation-filters="sRGB"/></filter><g/><clipPath id="a594a34fad"><path d="M 0 0.0195312 L 224.761719 0.0195312 L 224.761719 74.980469 L 0 74.980469 Z M 0 0.0195312 " clip-rule="nonzero"/></clipPath><clipPath id="ac68218a3c"><path d="M 0 0.0195312 L 224.761719 0.0195312 L 224.761719 74.980469 L 0 74.980469 Z M 0 0.0195312 " clip-rule="nonzero"/></clipPath><clipPath id="ae6cb53f85"><path d="M 0 0.0195312 L 224.761719 0.0195312 L 224.761719 74.980469 L 0 74.980469 Z M 0 0.0195312 " clip-rule="nonzero"/></clipPath><linearGradient x1="-15.508469" gradientTransform="matrix(0.74836, 0, 0, 0.750128, 11.605915, 14.995893)" y1="30.5" x2="284.828398" gradientUnits="userSpaceOnUse" y2="30.5" id="617aeb9eb6"><stop stop-opacity="1" stop-color="rgb(0%, 0%, 0%)" offset="0"/><stop stop-opacity="1" stop-color="rgb(0%, 0%, 0%)" offset="0.03125"/><stop stop-opacity="1" stop-color="rgb(0%, 0%, 0%)" offset="0.046875"/><stop stop-opacity="1" stop-color="rgb(0.0701904%, 0.0701904%, 0.0701904%)" offset="0.0546875"/><stop stop-opacity="1" stop-color="rgb(0.32959%, 0.32959%, 0.32959%)" offset="0.0625"/><stop stop-opacity="1" stop-color="rgb(0.708008%, 0.708008%, 0.708008%)" offset="0.0703125"/><stop stop-opacity="1" stop-color="rgb(1.087952%, 1.087952%, 1.087952%)" offset="0.078125"/><stop stop-opacity="1" stop-color="rgb(1.467896%, 1.467896%, 1.467896%)" offset="0.0859375"/><stop stop-opacity="1" stop-color="rgb(1.846313%, 1.846313%, 1.846313%)" offset="0.09375"/><stop stop-opacity="1" stop-color="rgb(2.226257%, 2.226257%, 2.226257%)" offset="0.101562"/><stop stop-opacity="1" stop-color="rgb(2.606201%, 2.606201%, 2.606201%)" offset="0.109375"/><stop stop-opacity="1" stop-color="rgb(2.984619%, 2.984619%, 2.984619%)" offset="0.117187"/><stop stop-opacity="1" stop-color="rgb(3.364563%, 3.364563%, 3.364563%)" offset="0.125"/><stop stop-opacity="1" stop-color="rgb(3.744507%, 3.744507%, 3.744507%)" offset="0.132812"/><stop stop-opacity="1" stop-color="rgb(4.122925%, 4.122925%, 4.122925%)" offset="0.140625"/><stop stop-opacity="1" stop-color="rgb(4.502869%, 4.502869%, 4.502869%)" offset="0.148438"/><stop stop-opacity="1" stop-color="rgb(4.881287%, 4.881287%, 4.881287%)" offset="0.15625"/><stop stop-opacity="1" stop-color="rgb(5.26123%, 5.26123%, 5.26123%)" offset="0.164062"/><stop stop-opacity="1" stop-color="rgb(5.641174%, 5.641174%, 5.641174%)" offset="0.171875"/><stop stop-opacity="1" stop-color="rgb(6.019592%, 6.019592%, 6.019592%)" offset="0.179687"/><stop stop-opacity="1" stop-color="rgb(6.399536%, 6.399536%, 6.399536%)" offset="0.1875"/><stop stop-opacity="1" stop-color="rgb(6.77948%, 6.77948%, 6.77948%)" offset="0.195312"/><stop stop-opacity="1" stop-color="rgb(7.157898%, 7.157898%, 7.157898%)" offset="0.203125"/><stop stop-opacity="1" stop-color="rgb(7.537842%, 7.537842%, 7.537842%)" offset="0.210937"/><stop stop-opacity="1" stop-color="rgb(7.917786%, 7.917786%, 7.917786%)" offset="0.21875"/><stop stop-opacity="1" stop-color="rgb(8.296204%, 8.296204%, 8.296204%)" offset="0.226562"/><stop stop-opacity="1" stop-color="rgb(8.676147%, 8.676147%, 8.676147%)" offset="0.234375"/><stop stop-opacity="1" stop-color="rgb(9.056091%, 9.056091%, 9.056091%)" offset="0.242187"/><stop stop-opacity="1" stop-color="rgb(9.434509%, 9.434509%, 9.434509%)" offset="0.25"/><stop stop-opacity="1" stop-color="rgb(9.814453%, 9.814453%, 9.814453%)" offset="0.257812"/><stop stop-opacity="1" stop-color="rgb(10.194397%, 10.194397%, 10.194397%)" offset="0.265625"/><stop stop-opacity="1" stop-color="rgb(10.572815%, 10.572815%, 10.572815%)" offset="0.273438"/><stop stop-opacity="1" stop-color="rgb(10.952759%, 10.952759%, 10.952759%)" offset="0.28125"/><stop stop-opacity="1" stop-color="rgb(11.332703%, 11.332703%, 11.332703%)" offset="0.289062"/><stop stop-opacity="1" stop-color="rgb(11.711121%, 11.711121%, 11.711121%)" offset="0.296875"/><stop stop-opacity="1" stop-color="rgb(12.091064%, 12.091064%, 12.091064%)" offset="0.304688"/><stop stop-opacity="1" stop-color="rgb(12.471008%, 12.471008%, 12.471008%)" offset="0.3125"/><stop stop-opacity="1" stop-color="rgb(12.849426%, 12.849426%, 12.849426%)" offset="0.320312"/><stop stop-opacity="1" stop-color="rgb(13.22937%, 13.22937%, 13.22937%)" offset="0.328125"/><stop stop-opacity="1" stop-color="rgb(13.609314%, 13.609314%, 13.609314%)" offset="0.335937"/><stop stop-opacity="1" stop-color="rgb(13.987732%, 13.987732%, 13.987732%)" offset="0.34375"/><stop stop-opacity="1" stop-color="rgb(14.367676%, 14.367676%, 14.367676%)" offset="0.351562"/><stop stop-opacity="1" stop-color="rgb(14.74762%, 14.74762%, 14.74762%)" offset="0.359375"/><stop stop-opacity="1" stop-color="rgb(15.126038%, 15.126038%, 15.126038%)" offset="0.367188"/><stop stop-opacity="1" stop-color="rgb(15.505981%, 15.505981%, 15.505981%)" offset="0.375"/><stop stop-opacity="1" stop-color="rgb(15.884399%, 15.884399%, 15.884399%)" offset="0.382812"/><stop stop-opacity="1" stop-color="rgb(16.264343%, 16.264343%, 16.264343%)" offset="0.390625"/><stop stop-opacity="1" stop-color="rgb(16.644287%, 16.644287%, 16.644287%)" offset="0.398437"/><stop stop-opacity="1" stop-color="rgb(17.022705%, 17.022705%, 17.022705%)" offset="0.40625"/><stop stop-opacity="1" stop-color="rgb(17.402649%, 17.402649%, 17.402649%)" offset="0.414062"/><stop stop-opacity="1" stop-color="rgb(17.782593%, 17.782593%, 17.782593%)" offset="0.421875"/><stop stop-opacity="1" stop-color="rgb(18.161011%, 18.161011%, 18.161011%)" offset="0.429687"/><stop stop-opacity="1" stop-color="rgb(18.540955%, 18.540955%, 18.540955%)" offset="0.4375"/><stop stop-opacity="1" stop-color="rgb(18.920898%, 18.920898%, 18.920898%)" offset="0.445312"/><stop stop-opacity="1" stop-color="rgb(19.299316%, 19.299316%, 19.299316%)" offset="0.453125"/><stop stop-opacity="1" stop-color="rgb(19.67926%, 19.67926%, 19.67926%)" offset="0.460938"/><stop stop-opacity="1" stop-color="rgb(20.059204%, 20.059204%, 20.059204%)" offset="0.46875"/><stop stop-opacity="1" stop-color="rgb(20.437622%, 20.437622%, 20.437622%)" offset="0.476562"/><stop stop-opacity="1" stop-color="rgb(20.817566%, 20.817566%, 20.817566%)" offset="0.484375"/><stop stop-opacity="1" stop-color="rgb(21.19751%, 21.19751%, 21.19751%)" offset="0.492188"/><stop stop-opacity="1" stop-color="rgb(21.575928%, 21.575928%, 21.575928%)" offset="0.5"/><stop stop-opacity="1" stop-color="rgb(21.955872%, 21.955872%, 21.955872%)" offset="0.507812"/><stop stop-opacity="1" stop-color="rgb(22.335815%, 22.335815%, 22.335815%)" offset="0.515625"/><stop stop-opacity="1" stop-color="rgb(22.714233%, 22.714233%, 22.714233%)" offset="0.523437"/><stop stop-opacity="1" stop-color="rgb(23.094177%, 23.094177%, 23.094177%)" offset="0.53125"/><stop stop-opacity="1" stop-color="rgb(23.474121%, 23.474121%, 23.474121%)" offset="0.539062"/><stop stop-opacity="1" stop-color="rgb(23.852539%, 23.852539%, 23.852539%)" offset="0.546875"/><stop stop-opacity="1" stop-color="rgb(24.232483%, 24.232483%, 24.232483%)" offset="0.554688"/><stop stop-opacity="1" stop-color="rgb(24.612427%, 24.612427%, 24.612427%)" offset="0.5625"/><stop stop-opacity="1" stop-color="rgb(24.990845%, 24.990845%, 24.990845%)" offset="0.570312"/><stop stop-opacity="1" stop-color="rgb(25.370789%, 25.370789%, 25.370789%)" offset="0.578125"/><stop stop-opacity="1" stop-color="rgb(25.750732%, 25.750732%, 25.750732%)" offset="0.585938"/><stop stop-opacity="1" stop-color="rgb(26.12915%, 26.12915%, 26.12915%)" offset="0.59375"/><stop stop-opacity="1" stop-color="rgb(26.509094%, 26.509094%, 26.509094%)" offset="0.601562"/><stop stop-opacity="1" stop-color="rgb(26.887512%, 26.887512%, 26.887512%)" offset="0.609375"/><stop stop-opacity="1" stop-color="rgb(27.267456%, 27.267456%, 27.267456%)" offset="0.617187"/><stop stop-opacity="1" stop-color="rgb(27.6474%, 27.6474%, 27.6474%)" offset="0.625"/><stop stop-opacity="1" stop-color="rgb(28.025818%, 28.025818%, 28.025818%)" offset="0.632812"/><stop stop-opacity="1" stop-color="rgb(28.405762%, 28.405762%, 28.405762%)" offset="0.640625"/><stop stop-opacity="1" stop-color="rgb(28.785706%, 28.785706%, 28.785706%)" offset="0.648438"/><stop stop-opacity="1" stop-color="rgb(29.164124%, 29.164124%, 29.164124%)" offset="0.65625"/><stop stop-opacity="1" stop-color="rgb(29.544067%, 29.544067%, 29.544067%)" offset="0.664062"/><stop stop-opacity="1" stop-color="rgb(29.924011%, 29.924011%, 29.924011%)" offset="0.671875"/><stop stop-opacity="1" stop-color="rgb(30.302429%, 30.302429%, 30.302429%)" offset="0.679687"/><stop stop-opacity="1" stop-color="rgb(30.682373%, 30.682373%, 30.682373%)" offset="0.6875"/><stop stop-opacity="1" stop-color="rgb(31.062317%, 31.062317%, 31.062317%)" offset="0.695312"/><stop stop-opacity="1" stop-color="rgb(31.440735%, 31.440735%, 31.440735%)" offset="0.703125"/><stop stop-opacity="1" stop-color="rgb(31.820679%, 31.820679%, 31.820679%)" offset="0.710937"/><stop stop-opacity="1" stop-color="rgb(32.200623%, 32.200623%, 32.200623%)" offset="0.71875"/><stop stop-opacity="1" stop-color="rgb(32.579041%, 32.579041%, 32.579041%)" offset="0.726562"/><stop stop-opacity="1" stop-color="rgb(32.958984%, 32.958984%, 32.958984%)" offset="0.734375"/><stop stop-opacity="1" stop-color="rgb(33.338928%, 33.338928%, 33.338928%)" offset="0.742187"/><stop stop-opacity="1" stop-color="rgb(33.717346%, 33.717346%, 33.717346%)" offset="0.75"/><stop stop-opacity="1" stop-color="rgb(34.09729%, 34.09729%, 34.09729%)" offset="0.757812"/><stop stop-opacity="1" stop-color="rgb(34.477234%, 34.477234%, 34.477234%)" offset="0.765625"/><stop stop-opacity="1" stop-color="rgb(34.855652%, 34.855652%, 34.855652%)" offset="0.773438"/><stop stop-opacity="1" stop-color="rgb(35.235596%, 35.235596%, 35.235596%)" offset="0.78125"/><stop stop-opacity="1" stop-color="rgb(35.61554%, 35.61554%, 35.61554%)" offset="0.789062"/><stop stop-opacity="1" stop-color="rgb(35.993958%, 35.993958%, 35.993958%)" offset="0.796875"/><stop stop-opacity="1" stop-color="rgb(36.373901%, 36.373901%, 36.373901%)" offset="0.804688"/><stop stop-opacity="1" stop-color="rgb(36.752319%, 36.752319%, 36.752319%)" offset="0.8125"/><stop stop-opacity="1" stop-color="rgb(37.132263%, 37.132263%, 37.132263%)" offset="0.820312"/><stop stop-opacity="1" stop-color="rgb(37.512207%, 37.512207%, 37.512207%)" offset="0.828125"/><stop stop-opacity="1" stop-color="rgb(37.890625%, 37.890625%, 37.890625%)" offset="0.835937"/><stop stop-opacity="1" stop-color="rgb(38.270569%, 38.270569%, 38.270569%)" offset="0.84375"/><stop stop-opacity="1" stop-color="rgb(38.650513%, 38.650513%, 38.650513%)" offset="0.851562"/><stop stop-opacity="1" stop-color="rgb(39.028931%, 39.028931%, 39.028931%)" offset="0.859375"/><stop stop-opacity="1" stop-color="rgb(39.408875%, 39.408875%, 39.408875%)" offset="0.867188"/><stop stop-opacity="1" stop-color="rgb(39.788818%, 39.788818%, 39.788818%)" offset="0.875"/><stop stop-opacity="1" stop-color="rgb(40.167236%, 40.167236%, 40.167236%)" offset="0.882812"/><stop stop-opacity="1" stop-color="rgb(40.54718%, 40.54718%, 40.54718%)" offset="0.890625"/><stop stop-opacity="1" stop-color="rgb(40.927124%, 40.927124%, 40.927124%)" offset="0.898438"/><stop stop-opacity="1" stop-color="rgb(41.305542%, 41.305542%, 41.305542%)" offset="0.90625"/><stop stop-opacity="1" stop-color="rgb(41.685486%, 41.685486%, 41.685486%)" offset="0.914062"/><stop stop-opacity="1" stop-color="rgb(42.06543%, 42.06543%, 42.06543%)" offset="0.921875"/><stop stop-opacity="1" stop-color="rgb(42.443848%, 42.443848%, 42.443848%)" offset="0.929688"/><stop stop-opacity="1" stop-color="rgb(42.823792%, 42.823792%, 42.823792%)" offset="0.9375"/><stop stop-opacity="1" stop-color="rgb(43.203735%, 43.203735%, 43.203735%)" offset="0.945312"/><stop stop-opacity="1" stop-color="rgb(43.582153%, 43.582153%, 43.582153%)" offset="0.953125"/><stop stop-opacity="1" stop-color="rgb(43.962097%, 43.962097%, 43.962097%)" offset="0.960937"/><stop stop-opacity="1" stop-color="rgb(44.342041%, 44.342041%, 44.342041%)" offset="0.96875"/><stop stop-opacity="1" stop-color="rgb(44.720459%, 44.720459%, 44.720459%)" offset="0.976562"/><stop stop-opacity="1" stop-color="rgb(45.004272%, 45.004272%, 45.004272%)" offset="0.984375"/><stop stop-opacity="1" stop-color="rgb(45.098877%, 45.098877%, 45.098877%)" offset="1"/></linearGradient><clipPath id="22a105f095"><rect x="0" width="225" y="0" height="75"/></clipPath><clipPath id="4bca1e1ce2"><path d="M 0 0.0195312 L 224.761719 0.0195312 L 224.761719 74.980469 L 0 74.980469 Z M 0 0.0195312 " clip-rule="nonzero"/></clipPath><clipPath id="9cd3f7120f"><rect x="0" width="225" y="0" height="75"/></clipPath><clipPath id="6a7163b1d5"><rect x="0" width="225" y="0" height="75"/></clipPath><mask id="6185870a1b"><g filter="url(#0f12b5ee99)"><g transform="matrix(1, 0, 0, 1, 0, -0.000000000000000847)"><g clip-path="url(#6a7163b1d5)"><g clip-path="url(#4bca1e1ce2)"><g transform="matrix(1, 0, 0, 1, 0, -0.000000000000000847)"><g clip-path="url(#9cd3f7120f)"><g fill="#000000" fill-opacity="1"><g transform="translate(11.468434, 48.369195)"><g><path d="M 19.96875 -11.265625 C 19.96875 -9.628906 19.671875 -8.125 19.078125 -6.75 C 18.460938 -5.363281 17.632812 -4.175781 16.59375 -3.1875 C 15.550781 -2.1875 14.328125 -1.410156 12.921875 -0.859375 C 11.503906 -0.285156 9.988281 0 8.375 0 L 2.484375 0 L 2.484375 -22.53125 L 8.375 -22.53125 C 9.988281 -22.53125 11.503906 -22.253906 12.921875 -21.703125 C 14.328125 -21.117188 15.550781 -20.332031 16.59375 -19.34375 C 17.632812 -18.351562 18.460938 -17.171875 19.078125 -15.796875 C 19.671875 -14.410156 19.96875 -12.898438 19.96875 -11.265625 Z M 17.71875 -11.265625 C 17.71875 -13.828125 16.8125 -15.96875 15 -17.6875 C 13.238281 -19.363281 11.054688 -20.203125 8.453125 -20.203125 L 4.796875 -20.203125 L 4.796875 -2.3125 L 8.453125 -2.3125 C 11.054688 -2.3125 13.238281 -3.15625 15 -4.84375 C 16.8125 -6.5625 17.71875 -8.703125 17.71875 -11.265625 Z M 17.71875 -11.265625 "/></g></g></g><g fill="#000000" fill-opacity="1"><g transform="translate(40.057111, 48.369195)"><g><path d="M 15.859375 0 L 2.484375 0 L 2.484375 -22.53125 L 15.859375 -22.53125 L 15.859375 -20.375 L 4.796875 -20.375 L 4.796875 -12.359375 L 15.53125 -12.359375 L 15.53125 -10.171875 L 4.796875 -10.171875 L 4.796875 -2.15625 L 15.859375 -2.15625 Z M 15.859375 0 "/></g></g></g><g fill="#000000" fill-opacity="1"><g transform="translate(65.532232, 48.369195)"><g><path d="M 8.75 -10.640625 C 4.15625 -11.691406 1.859375 -13.65625 1.859375 -16.53125 C 1.859375 -18.644531 2.597656 -20.234375 4.078125 -21.296875 C 5.554688 -22.335938 7.289062 -22.859375 9.28125 -22.859375 C 13.664062 -22.859375 16.269531 -21.222656 17.09375 -17.953125 L 14.578125 -17.953125 C 14.128906 -19.898438 12.363281 -20.875 9.28125 -20.875 C 7.113281 -20.875 5.597656 -20.234375 4.734375 -18.953125 C 4.398438 -18.460938 4.234375 -17.851562 4.234375 -17.125 C 4.234375 -15.726562 4.988281 -14.65625 6.5 -13.90625 C 7.195312 -13.53125 8.695312 -13.046875 11 -12.453125 C 13.289062 -11.859375 14.957031 -11.195312 16 -10.46875 C 17.4375 -9.445312 18.15625 -8.019531 18.15625 -6.1875 C 18.15625 -3.914062 17.257812 -2.195312 15.46875 -1.03125 C 13.96875 -0.0507812 12.113281 0.4375 9.90625 0.4375 C 4.914062 0.4375 2.019531 -1.460938 1.21875 -5.265625 L 3.96875 -5.265625 C 4.394531 -2.878906 6.375 -1.6875 9.90625 -1.6875 C 12.425781 -1.6875 14.179688 -2.382812 15.171875 -3.78125 C 15.566406 -4.332031 15.765625 -5.082031 15.765625 -6.03125 C 15.765625 -6.957031 15.398438 -7.71875 14.671875 -8.3125 C 13.640625 -9.15625 11.664062 -9.929688 8.75 -10.640625 Z M 8.75 -10.640625 "/></g></g></g><g fill="#000000" fill-opacity="1"><g transform="translate(91.669805, 48.369195)"><g><path d="M 4.796875 0 L 2.484375 0 L 2.484375 -22.53125 L 4.796875 -22.53125 Z M 4.796875 0 "/></g></g></g><g fill="#000000" fill-opacity="1"><g transform="translate(106.081852, 48.369195)"><g><path d="M 24.71875 -10.53125 L 24.484375 -9.140625 C 23.992188 -6.398438 22.65625 -4.148438 20.46875 -2.390625 C 18.28125 -0.617188 15.816406 0.265625 13.078125 0.265625 C 11.492188 0.265625 9.992188 -0.0390625 8.578125 -0.65625 C 7.160156 -1.257812 5.9375 -2.085938 4.90625 -3.140625 C 3.84375 -4.179688 3.015625 -5.410156 2.421875 -6.828125 C 1.796875 -8.234375 1.484375 -9.742188 1.484375 -11.359375 C 1.484375 -12.953125 1.796875 -14.453125 2.421875 -15.859375 C 3.015625 -17.273438 3.84375 -18.515625 4.90625 -19.578125 C 5.9375 -20.617188 7.160156 -21.445312 8.578125 -22.0625 C 9.992188 -22.65625 11.421875 -22.953125 12.859375 -22.953125 C 15.546875 -22.953125 17.914062 -22.191406 19.96875 -20.671875 C 22.050781 -19.148438 23.46875 -17.140625 24.21875 -14.640625 L 21.765625 -14.640625 C 21.054688 -16.472656 19.914062 -17.929688 18.34375 -19.015625 C 16.757812 -20.097656 15.003906 -20.640625 13.078125 -20.640625 C 10.515625 -20.640625 8.332031 -19.734375 6.53125 -17.921875 C 4.71875 -16.109375 3.8125 -13.921875 3.8125 -11.359375 C 3.8125 -8.816406 4.71875 -6.628906 6.53125 -4.796875 C 8.3125 -2.960938 10.492188 -2.046875 13.078125 -2.046875 C 15.109375 -2.046875 16.96875 -2.632812 18.65625 -3.8125 C 20.3125 -5 21.46875 -6.566406 22.125 -8.515625 L 12.984375 -8.515625 L 12.984375 -10.53125 Z M 24.71875 -10.53125 "/></g></g></g><g fill="#000000" fill-opacity="1"><g transform="translate(139.407114, 48.369195)"><g><path d="M 4.796875 -16.59375 L 4.796875 0 L 2.484375 0 L 2.484375 -23.953125 L 15.140625 -5.96875 L 15.140625 -22.53125 L 17.453125 -22.53125 L 17.453125 1.390625 Z M 4.796875 -16.59375 "/></g></g></g><g fill="#000000" fill-opacity="1"><g transform="translate(166.472137, 48.369195)"><g><path d="M 15.859375 0 L 2.484375 0 L 2.484375 -22.53125 L 15.859375 -22.53125 L 15.859375 -20.375 L 4.796875 -20.375 L 4.796875 -12.359375 L 15.53125 -12.359375 L 15.53125 -10.171875 L 4.796875 -10.171875 L 4.796875 -2.15625 L 15.859375 -2.15625 Z M 15.859375 0 "/></g></g></g><g fill="#000000" fill-opacity="1"><g transform="translate(191.947257, 48.369195)"><g><path d="M 19.96875 -11.265625 C 19.96875 -9.628906 19.671875 -8.125 19.078125 -6.75 C 18.460938 -5.363281 17.632812 -4.175781 16.59375 -3.1875 C 15.550781 -2.1875 14.328125 -1.410156 12.921875 -0.859375 C 11.503906 -0.285156 9.988281 0 8.375 0 L 2.484375 0 L 2.484375 -22.53125 L 8.375 -22.53125 C 9.988281 -22.53125 11.503906 -22.253906 12.921875 -21.703125 C 14.328125 -21.117188 15.550781 -20.332031 16.59375 -19.34375 C 17.632812 -18.351562 18.460938 -17.171875 19.078125 -15.796875 C 19.671875 -14.410156 19.96875 -12.898438 19.96875 -11.265625 Z M 17.71875 -11.265625 C 17.71875 -13.828125 16.8125 -15.96875 15 -17.6875 C 13.238281 -19.363281 11.054688 -20.203125 8.453125 -20.203125 L 4.796875 -20.203125 L 4.796875 -2.3125 L 8.453125 -2.3125 C 11.054688 -2.3125 13.238281 -3.15625 15 -4.84375 C 16.8125 -6.5625 17.71875 -8.703125 17.71875 -11.265625 Z M 17.71875 -11.265625 "/></g></g></g></g></g></g></g></g></g></mask><clipPath id="393ffe3366"><path d="M 0 0.0195312 L 224.761719 0.0195312 L 224.761719 74.980469 L 0 74.980469 Z M 0 0.0195312 " clip-rule="nonzero"/></clipPath><clipPath id="2ed00b94ca"><rect x="0" width="225" y="0" height="75"/></clipPath><clipPath id="10f52f90c8"><rect x="0" width="225" y="0" height="75"/></clipPath><clipPath id="fe359adff4"><path d="M 0.28125 0.0351562 L 42.925781 0.0351562 L 42.925781 21.359375 L 0.28125 21.359375 Z M 0.28125 0.0351562 " clip-rule="nonzero"/></clipPath><clipPath id="196a29cd52"><path d="M 0.28125 0.0351562 L 42.925781 0.0351562 L 42.925781 21.359375 L 0.28125 21.359375 Z M 0.28125 0.0351562 " clip-rule="nonzero"/></clipPath><clipPath id="5c17443285"><path d="M 0.28125 0.371094 L 42.925781 0.371094 L 42.925781 21.023438 L 0.28125 21.023438 Z M 0.28125 0.371094 " clip-rule="nonzero"/></clipPath><linearGradient x1="-24" gradientTransform="matrix(0.333685, 0, 0, 0.333155, 8.290787, 8.031813)" y1="8" x2="103.796979" gradientUnits="userSpaceOnUse" y2="8" id="95b63cb3e3"><stop stop-opacity="1" stop-color="rgb(0%, 0%, 0%)" offset="0"/><stop stop-opacity="1" stop-color="rgb(0%, 0%, 0%)" offset="0.125"/><stop stop-opacity="1" stop-color="rgb(0%, 0%, 0%)" offset="0.1875"/><stop stop-opacity="1" stop-color="rgb(0.270081%, 0.270081%, 0.270081%)" offset="0.191406"/><stop stop-opacity="1" stop-color="rgb(0.541687%, 0.541687%, 0.541687%)" offset="0.195312"/><stop stop-opacity="1" stop-color="rgb(0.823975%, 0.823975%, 0.823975%)" offset="0.199219"/><stop stop-opacity="1" stop-color="rgb(1.106262%, 1.106262%, 1.106262%)" offset="0.203125"/><stop stop-opacity="1" stop-color="rgb(1.38855%, 1.38855%, 1.38855%)" offset="0.207031"/><stop stop-opacity="1" stop-color="rgb(1.670837%, 1.670837%, 1.670837%)" offset="0.210938"/><stop stop-opacity="1" stop-color="rgb(1.953125%, 1.953125%, 1.953125%)" offset="0.214844"/><stop stop-opacity="1" stop-color="rgb(2.235413%, 2.235413%, 2.235413%)" offset="0.21875"/><stop stop-opacity="1" stop-color="rgb(2.516174%, 2.516174%, 2.516174%)" offset="0.222656"/><stop stop-opacity="1" stop-color="rgb(2.798462%, 2.798462%, 2.798462%)" offset="0.226562"/><stop stop-opacity="1" stop-color="rgb(3.08075%, 3.08075%, 3.08075%)" offset="0.230469"/><stop stop-opacity="1" stop-color="rgb(3.363037%, 3.363037%, 3.363037%)" offset="0.234375"/><stop stop-opacity="1" stop-color="rgb(3.645325%, 3.645325%, 3.645325%)" offset="0.238281"/><stop stop-opacity="1" stop-color="rgb(3.927612%, 3.927612%, 3.927612%)" offset="0.242188"/><stop stop-opacity="1" stop-color="rgb(4.2099%, 4.2099%, 4.2099%)" offset="0.246094"/><stop stop-opacity="1" stop-color="rgb(4.492188%, 4.492188%, 4.492188%)" offset="0.25"/><stop stop-opacity="1" stop-color="rgb(4.774475%, 4.774475%, 4.774475%)" offset="0.253906"/><stop stop-opacity="1" stop-color="rgb(5.056763%, 5.056763%, 5.056763%)" offset="0.257812"/><stop stop-opacity="1" stop-color="rgb(5.33905%, 5.33905%, 5.33905%)" offset="0.261719"/><stop stop-opacity="1" stop-color="rgb(5.621338%, 5.621338%, 5.621338%)" offset="0.265625"/><stop stop-opacity="1" stop-color="rgb(5.9021%, 5.9021%, 5.9021%)" offset="0.269531"/><stop stop-opacity="1" stop-color="rgb(6.184387%, 6.184387%, 6.184387%)" offset="0.273438"/><stop stop-opacity="1" stop-color="rgb(6.466675%, 6.466675%, 6.466675%)" offset="0.277344"/><stop stop-opacity="1" stop-color="rgb(6.748962%, 6.748962%, 6.748962%)" offset="0.28125"/><stop stop-opacity="1" stop-color="rgb(7.03125%, 7.03125%, 7.03125%)" offset="0.285156"/><stop stop-opacity="1" stop-color="rgb(7.313538%, 7.313538%, 7.313538%)" offset="0.289062"/><stop stop-opacity="1" stop-color="rgb(7.595825%, 7.595825%, 7.595825%)" offset="0.292969"/><stop stop-opacity="1" stop-color="rgb(7.878113%, 7.878113%, 7.878113%)" offset="0.296875"/><stop stop-opacity="1" stop-color="rgb(8.1604%, 8.1604%, 8.1604%)" offset="0.300781"/><stop stop-opacity="1" stop-color="rgb(8.442688%, 8.442688%, 8.442688%)" offset="0.304688"/><stop stop-opacity="1" stop-color="rgb(8.72345%, 8.72345%, 8.72345%)" offset="0.308594"/><stop stop-opacity="1" stop-color="rgb(9.005737%, 9.005737%, 9.005737%)" offset="0.3125"/><stop stop-opacity="1" stop-color="rgb(9.288025%, 9.288025%, 9.288025%)" offset="0.316406"/><stop stop-opacity="1" stop-color="rgb(9.570312%, 9.570312%, 9.570312%)" offset="0.320312"/><stop stop-opacity="1" stop-color="rgb(9.8526%, 9.8526%, 9.8526%)" offset="0.324219"/><stop stop-opacity="1" stop-color="rgb(10.134888%, 10.134888%, 10.134888%)" offset="0.328125"/><stop stop-opacity="1" stop-color="rgb(10.417175%, 10.417175%, 10.417175%)" offset="0.332031"/><stop stop-opacity="1" stop-color="rgb(10.699463%, 10.699463%, 10.699463%)" offset="0.335938"/><stop stop-opacity="1" stop-color="rgb(10.98175%, 10.98175%, 10.98175%)" offset="0.339844"/><stop stop-opacity="1" stop-color="rgb(11.264038%, 11.264038%, 11.264038%)" offset="0.34375"/><stop stop-opacity="1" stop-color="rgb(11.5448%, 11.5448%, 11.5448%)" offset="0.347656"/><stop stop-opacity="1" stop-color="rgb(11.827087%, 11.827087%, 11.827087%)" offset="0.351562"/><stop stop-opacity="1" stop-color="rgb(12.109375%, 12.109375%, 12.109375%)" offset="0.355469"/><stop stop-opacity="1" stop-color="rgb(12.391663%, 12.391663%, 12.391663%)" offset="0.359375"/><stop stop-opacity="1" stop-color="rgb(12.67395%, 12.67395%, 12.67395%)" offset="0.363281"/><stop stop-opacity="1" stop-color="rgb(12.956238%, 12.956238%, 12.956238%)" offset="0.367188"/><stop stop-opacity="1" stop-color="rgb(13.238525%, 13.238525%, 13.238525%)" offset="0.371094"/><stop stop-opacity="1" stop-color="rgb(13.520813%, 13.520813%, 13.520813%)" offset="0.375"/><stop stop-opacity="1" stop-color="rgb(13.803101%, 13.803101%, 13.803101%)" offset="0.378906"/><stop stop-opacity="1" stop-color="rgb(14.085388%, 14.085388%, 14.085388%)" offset="0.382812"/><stop stop-opacity="1" stop-color="rgb(14.367676%, 14.367676%, 14.367676%)" offset="0.386719"/><stop stop-opacity="1" stop-color="rgb(14.649963%, 14.649963%, 14.649963%)" offset="0.390625"/><stop stop-opacity="1" stop-color="rgb(14.930725%, 14.930725%, 14.930725%)" offset="0.394531"/><stop stop-opacity="1" stop-color="rgb(15.213013%, 15.213013%, 15.213013%)" offset="0.398438"/><stop stop-opacity="1" stop-color="rgb(15.4953%, 15.4953%, 15.4953%)" offset="0.402344"/><stop stop-opacity="1" stop-color="rgb(15.777588%, 15.777588%, 15.777588%)" offset="0.40625"/><stop stop-opacity="1" stop-color="rgb(16.059875%, 16.059875%, 16.059875%)" offset="0.410156"/><stop stop-opacity="1" stop-color="rgb(16.342163%, 16.342163%, 16.342163%)" offset="0.414062"/><stop stop-opacity="1" stop-color="rgb(16.624451%, 16.624451%, 16.624451%)" offset="0.417969"/><stop stop-opacity="1" stop-color="rgb(16.906738%, 16.906738%, 16.906738%)" offset="0.421875"/><stop stop-opacity="1" stop-color="rgb(17.189026%, 17.189026%, 17.189026%)" offset="0.425781"/><stop stop-opacity="1" stop-color="rgb(17.471313%, 17.471313%, 17.471313%)" offset="0.429688"/><stop stop-opacity="1" stop-color="rgb(17.752075%, 17.752075%, 17.752075%)" offset="0.433594"/><stop stop-opacity="1" stop-color="rgb(18.034363%, 18.034363%, 18.034363%)" offset="0.4375"/><stop stop-opacity="1" stop-color="rgb(18.31665%, 18.31665%, 18.31665%)" offset="0.441406"/><stop stop-opacity="1" stop-color="rgb(18.598938%, 18.598938%, 18.598938%)" offset="0.445312"/><stop stop-opacity="1" stop-color="rgb(18.881226%, 18.881226%, 18.881226%)" offset="0.449219"/><stop stop-opacity="1" stop-color="rgb(19.163513%, 19.163513%, 19.163513%)" offset="0.453125"/><stop stop-opacity="1" stop-color="rgb(19.445801%, 19.445801%, 19.445801%)" offset="0.457031"/><stop stop-opacity="1" stop-color="rgb(19.728088%, 19.728088%, 19.728088%)" offset="0.460938"/><stop stop-opacity="1" stop-color="rgb(20.010376%, 20.010376%, 20.010376%)" offset="0.464844"/><stop stop-opacity="1" stop-color="rgb(20.292664%, 20.292664%, 20.292664%)" offset="0.46875"/><stop stop-opacity="1" stop-color="rgb(20.573425%, 20.573425%, 20.573425%)" offset="0.472656"/><stop stop-opacity="1" stop-color="rgb(20.855713%, 20.855713%, 20.855713%)" offset="0.476562"/><stop stop-opacity="1" stop-color="rgb(21.138%, 21.138%, 21.138%)" offset="0.480469"/><stop stop-opacity="1" stop-color="rgb(21.420288%, 21.420288%, 21.420288%)" offset="0.484375"/><stop stop-opacity="1" stop-color="rgb(21.702576%, 21.702576%, 21.702576%)" offset="0.488281"/><stop stop-opacity="1" stop-color="rgb(21.984863%, 21.984863%, 21.984863%)" offset="0.492188"/><stop stop-opacity="1" stop-color="rgb(22.267151%, 22.267151%, 22.267151%)" offset="0.496094"/><stop stop-opacity="1" stop-color="rgb(22.549438%, 22.549438%, 22.549438%)" offset="0.5"/><stop stop-opacity="1" stop-color="rgb(22.831726%, 22.831726%, 22.831726%)" offset="0.503906"/><stop stop-opacity="1" stop-color="rgb(23.114014%, 23.114014%, 23.114014%)" offset="0.507812"/><stop stop-opacity="1" stop-color="rgb(23.394775%, 23.394775%, 23.394775%)" offset="0.511719"/><stop stop-opacity="1" stop-color="rgb(23.677063%, 23.677063%, 23.677063%)" offset="0.515625"/><stop stop-opacity="1" stop-color="rgb(23.959351%, 23.959351%, 23.959351%)" offset="0.519531"/><stop stop-opacity="1" stop-color="rgb(24.241638%, 24.241638%, 24.241638%)" offset="0.523438"/><stop stop-opacity="1" stop-color="rgb(24.523926%, 24.523926%, 24.523926%)" offset="0.527344"/><stop stop-opacity="1" stop-color="rgb(24.806213%, 24.806213%, 24.806213%)" offset="0.53125"/><stop stop-opacity="1" stop-color="rgb(25.088501%, 25.088501%, 25.088501%)" offset="0.535156"/><stop stop-opacity="1" stop-color="rgb(25.370789%, 25.370789%, 25.370789%)" offset="0.539063"/><stop stop-opacity="1" stop-color="rgb(25.653076%, 25.653076%, 25.653076%)" offset="0.542969"/><stop stop-opacity="1" stop-color="rgb(25.935364%, 25.935364%, 25.935364%)" offset="0.546875"/><stop stop-opacity="1" stop-color="rgb(26.217651%, 26.217651%, 26.217651%)" offset="0.550781"/><stop stop-opacity="1" stop-color="rgb(26.499939%, 26.499939%, 26.499939%)" offset="0.554688"/><stop stop-opacity="1" stop-color="rgb(26.780701%, 26.780701%, 26.780701%)" offset="0.558594"/><stop stop-opacity="1" stop-color="rgb(27.062988%, 27.062988%, 27.062988%)" offset="0.5625"/><stop stop-opacity="1" stop-color="rgb(27.345276%, 27.345276%, 27.345276%)" offset="0.566406"/><stop stop-opacity="1" stop-color="rgb(27.627563%, 27.627563%, 27.627563%)" offset="0.570313"/><stop stop-opacity="1" stop-color="rgb(27.909851%, 27.909851%, 27.909851%)" offset="0.574219"/><stop stop-opacity="1" stop-color="rgb(28.192139%, 28.192139%, 28.192139%)" offset="0.578125"/><stop stop-opacity="1" stop-color="rgb(28.474426%, 28.474426%, 28.474426%)" offset="0.582031"/><stop stop-opacity="1" stop-color="rgb(28.756714%, 28.756714%, 28.756714%)" offset="0.585938"/><stop stop-opacity="1" stop-color="rgb(29.039001%, 29.039001%, 29.039001%)" offset="0.589844"/><stop stop-opacity="1" stop-color="rgb(29.321289%, 29.321289%, 29.321289%)" offset="0.59375"/><stop stop-opacity="1" stop-color="rgb(29.602051%, 29.602051%, 29.602051%)" offset="0.597656"/><stop stop-opacity="1" stop-color="rgb(29.884338%, 29.884338%, 29.884338%)" offset="0.601562"/><stop stop-opacity="1" stop-color="rgb(30.166626%, 30.166626%, 30.166626%)" offset="0.605469"/><stop stop-opacity="1" stop-color="rgb(30.448914%, 30.448914%, 30.448914%)" offset="0.609375"/><stop stop-opacity="1" stop-color="rgb(30.731201%, 30.731201%, 30.731201%)" offset="0.613281"/><stop stop-opacity="1" stop-color="rgb(31.013489%, 31.013489%, 31.013489%)" offset="0.617188"/><stop stop-opacity="1" stop-color="rgb(31.295776%, 31.295776%, 31.295776%)" offset="0.621094"/><stop stop-opacity="1" stop-color="rgb(31.578064%, 31.578064%, 31.578064%)" offset="0.625"/><stop stop-opacity="1" stop-color="rgb(31.860352%, 31.860352%, 31.860352%)" offset="0.628906"/><stop stop-opacity="1" stop-color="rgb(32.142639%, 32.142639%, 32.142639%)" offset="0.632813"/><stop stop-opacity="1" stop-color="rgb(32.423401%, 32.423401%, 32.423401%)" offset="0.636719"/><stop stop-opacity="1" stop-color="rgb(32.705688%, 32.705688%, 32.705688%)" offset="0.640625"/><stop stop-opacity="1" stop-color="rgb(32.987976%, 32.987976%, 32.987976%)" offset="0.644531"/><stop stop-opacity="1" stop-color="rgb(33.270264%, 33.270264%, 33.270264%)" offset="0.648438"/><stop stop-opacity="1" stop-color="rgb(33.552551%, 33.552551%, 33.552551%)" offset="0.652344"/><stop stop-opacity="1" stop-color="rgb(33.834839%, 33.834839%, 33.834839%)" offset="0.65625"/><stop stop-opacity="1" stop-color="rgb(34.117126%, 34.117126%, 34.117126%)" offset="0.660156"/><stop stop-opacity="1" stop-color="rgb(34.399414%, 34.399414%, 34.399414%)" offset="0.664063"/><stop stop-opacity="1" stop-color="rgb(34.681702%, 34.681702%, 34.681702%)" offset="0.667969"/><stop stop-opacity="1" stop-color="rgb(34.963989%, 34.963989%, 34.963989%)" offset="0.671875"/><stop stop-opacity="1" stop-color="rgb(35.246277%, 35.246277%, 35.246277%)" offset="0.675781"/><stop stop-opacity="1" stop-color="rgb(35.528564%, 35.528564%, 35.528564%)" offset="0.679688"/><stop stop-opacity="1" stop-color="rgb(35.809326%, 35.809326%, 35.809326%)" offset="0.683594"/><stop stop-opacity="1" stop-color="rgb(36.091614%, 36.091614%, 36.091614%)" offset="0.6875"/><stop stop-opacity="1" stop-color="rgb(36.373901%, 36.373901%, 36.373901%)" offset="0.691406"/><stop stop-opacity="1" stop-color="rgb(36.656189%, 36.656189%, 36.656189%)" offset="0.695313"/><stop stop-opacity="1" stop-color="rgb(36.938477%, 36.938477%, 36.938477%)" offset="0.699219"/><stop stop-opacity="1" stop-color="rgb(37.220764%, 37.220764%, 37.220764%)" offset="0.703125"/><stop stop-opacity="1" stop-color="rgb(37.503052%, 37.503052%, 37.503052%)" offset="0.707031"/><stop stop-opacity="1" stop-color="rgb(37.785339%, 37.785339%, 37.785339%)" offset="0.710938"/><stop stop-opacity="1" stop-color="rgb(38.067627%, 38.067627%, 38.067627%)" offset="0.714844"/><stop stop-opacity="1" stop-color="rgb(38.349915%, 38.349915%, 38.349915%)" offset="0.71875"/><stop stop-opacity="1" stop-color="rgb(38.630676%, 38.630676%, 38.630676%)" offset="0.722656"/><stop stop-opacity="1" stop-color="rgb(38.912964%, 38.912964%, 38.912964%)" offset="0.726563"/><stop stop-opacity="1" stop-color="rgb(39.195251%, 39.195251%, 39.195251%)" offset="0.730469"/><stop stop-opacity="1" stop-color="rgb(39.477539%, 39.477539%, 39.477539%)" offset="0.734375"/><stop stop-opacity="1" stop-color="rgb(39.759827%, 39.759827%, 39.759827%)" offset="0.738281"/><stop stop-opacity="1" stop-color="rgb(40.042114%, 40.042114%, 40.042114%)" offset="0.742188"/><stop stop-opacity="1" stop-color="rgb(40.324402%, 40.324402%, 40.324402%)" offset="0.746094"/><stop stop-opacity="1" stop-color="rgb(40.606689%, 40.606689%, 40.606689%)" offset="0.75"/><stop stop-opacity="1" stop-color="rgb(40.888977%, 40.888977%, 40.888977%)" offset="0.753906"/><stop stop-opacity="1" stop-color="rgb(41.171265%, 41.171265%, 41.171265%)" offset="0.757813"/><stop stop-opacity="1" stop-color="rgb(41.452026%, 41.452026%, 41.452026%)" offset="0.761719"/><stop stop-opacity="1" stop-color="rgb(41.734314%, 41.734314%, 41.734314%)" offset="0.765625"/><stop stop-opacity="1" stop-color="rgb(42.016602%, 42.016602%, 42.016602%)" offset="0.769531"/><stop stop-opacity="1" stop-color="rgb(42.298889%, 42.298889%, 42.298889%)" offset="0.773438"/><stop stop-opacity="1" stop-color="rgb(42.581177%, 42.581177%, 42.581177%)" offset="0.777344"/><stop stop-opacity="1" stop-color="rgb(42.863464%, 42.863464%, 42.863464%)" offset="0.78125"/><stop stop-opacity="1" stop-color="rgb(43.145752%, 43.145752%, 43.145752%)" offset="0.785156"/><stop stop-opacity="1" stop-color="rgb(43.42804%, 43.42804%, 43.42804%)" offset="0.789063"/><stop stop-opacity="1" stop-color="rgb(43.710327%, 43.710327%, 43.710327%)" offset="0.792969"/><stop stop-opacity="1" stop-color="rgb(43.992615%, 43.992615%, 43.992615%)" offset="0.796875"/><stop stop-opacity="1" stop-color="rgb(44.274902%, 44.274902%, 44.274902%)" offset="0.800781"/><stop stop-opacity="1" stop-color="rgb(44.55719%, 44.55719%, 44.55719%)" offset="0.804688"/><stop stop-opacity="1" stop-color="rgb(44.827271%, 44.827271%, 44.827271%)" offset="0.808594"/><stop stop-opacity="1" stop-color="rgb(45.098877%, 45.098877%, 45.098877%)" offset="0.8125"/><stop stop-opacity="1" stop-color="rgb(45.098877%, 45.098877%, 45.098877%)" offset="0.875"/><stop stop-opacity="1" stop-color="rgb(45.098877%, 45.098877%, 45.098877%)" offset="1"/></linearGradient><clipPath id="e92df34d1a"><rect x="0" width="43" y="0" height="22"/></clipPath><clipPath id="f201f596be"><path d="M 0.28125 0.0351562 L 42.925781 0.0351562 L 42.925781 21.359375 L 0.28125 21.359375 Z M 0.28125 0.0351562 " clip-rule="nonzero"/></clipPath><clipPath id="1abb028fdb"><rect x="0" width="43" y="0" height="22"/></clipPath><clipPath id="a9a36bfc89"><rect x="0" width="43" y="0" height="22"/></clipPath><mask id="a1f1e4e072"><g filter="url(#0f12b5ee99)"><g transform="matrix(1, 0, 0, 1, 0.000000000000028422, 0.000000000000007105)"><g clip-path="url(#a9a36bfc89)"><g clip-path="url(#f201f596be)"><g transform="matrix(1, 0, 0, 1, 0.000000000000028422, 0.000000000000007105)"><g clip-path="url(#1abb028fdb)"><g fill="#000000" fill-opacity="1"><g transform="translate(8.278079, 12.029674)"><g><path d="M 0.578125 0 L 0.296875 0 L 0.296875 -3 L 0.578125 -3 L 0.578125 -1.453125 C 0.597656 -1.472656 0.613281 -1.492188 0.625 -1.515625 C 0.789062 -1.703125 1 -1.796875 1.25 -1.796875 C 1.488281 -1.796875 1.691406 -1.703125 1.859375 -1.515625 C 2.015625 -1.335938 2.09375 -1.125 2.09375 -0.875 C 2.09375 -0.632812 2.015625 -0.421875 1.859375 -0.234375 C 1.691406 -0.046875 1.488281 0.046875 1.25 0.046875 C 1 0.046875 0.789062 -0.046875 0.625 -0.234375 C 0.613281 -0.253906 0.597656 -0.273438 0.578125 -0.296875 Z M 1.8125 -0.875 C 1.8125 -1.050781 1.753906 -1.203125 1.640625 -1.328125 C 1.523438 -1.453125 1.378906 -1.515625 1.203125 -1.515625 C 1.023438 -1.515625 0.878906 -1.453125 0.765625 -1.328125 C 0.640625 -1.203125 0.578125 -1.050781 0.578125 -0.875 C 0.578125 -0.707031 0.640625 -0.5625 0.765625 -0.4375 C 0.878906 -0.300781 1.023438 -0.234375 1.203125 -0.234375 C 1.378906 -0.234375 1.523438 -0.300781 1.640625 -0.4375 C 1.753906 -0.5625 1.8125 -0.707031 1.8125 -0.875 Z M 1.8125 -0.875 "/></g></g></g><g fill="#000000" fill-opacity="1"><g transform="translate(10.556875, 12.029674)"><g><path d="M 0.53125 1 L 0.1875 1 L 0.78125 -0.28125 L 0.046875 -1.765625 L 0.359375 -1.765625 L 0.921875 -0.578125 L 1.421875 -1.765625 L 1.734375 -1.765625 Z M 0.53125 1 "/></g></g></g><g fill="#000000" fill-opacity="1"><g transform="translate(12.25598, 12.029674)"><g/></g></g><g fill="#000000" fill-opacity="1"><g transform="translate(13.33541, 12.029674)"><g><path d="M 2.796875 -0.828125 C 2.691406 -0.566406 2.523438 -0.359375 2.296875 -0.203125 C 2.066406 -0.0351562 1.8125 0.046875 1.53125 0.046875 C 1.15625 0.046875 0.835938 -0.09375 0.578125 -0.375 C 0.316406 -0.644531 0.1875 -0.972656 0.1875 -1.359375 C 0.1875 -1.546875 0.21875 -1.722656 0.28125 -1.890625 C 0.351562 -2.054688 0.453125 -2.207031 0.578125 -2.34375 C 0.835938 -2.613281 1.15625 -2.75 1.53125 -2.75 C 1.8125 -2.75 2.066406 -2.671875 2.296875 -2.515625 C 2.523438 -2.359375 2.691406 -2.148438 2.796875 -1.890625 L 2.484375 -1.890625 C 2.335938 -2.160156 2.117188 -2.335938 1.828125 -2.421875 C 1.734375 -2.453125 1.625 -2.46875 1.5 -2.46875 C 1.375 -2.46875 1.242188 -2.4375 1.109375 -2.375 C 0.984375 -2.3125 0.867188 -2.234375 0.765625 -2.140625 C 0.554688 -1.921875 0.453125 -1.660156 0.453125 -1.359375 C 0.453125 -1.054688 0.554688 -0.796875 0.765625 -0.578125 C 0.984375 -0.359375 1.238281 -0.25 1.53125 -0.25 C 1.738281 -0.25 1.925781 -0.300781 2.09375 -0.40625 C 2.257812 -0.507812 2.390625 -0.648438 2.484375 -0.828125 Z M 2.796875 -0.828125 "/></g></g></g><g fill="#000000" fill-opacity="1"><g transform="translate(16.249874, 12.029674)"><g><path d="M 1.921875 0 L 0.296875 0 L 0.296875 -2.71875 L 1.921875 -2.71875 L 1.921875 -2.453125 L 0.578125 -2.453125 L 0.578125 -1.484375 L 1.875 -1.484375 L 1.875 -1.234375 L 0.578125 -1.234375 L 0.578125 -0.265625 L 1.921875 -0.265625 Z M 1.921875 0 "/></g></g></g><g fill="#000000" fill-opacity="1"><g transform="translate(18.464704, 12.029674)"><g><path d="M 2.40625 -1.359375 C 2.40625 -1.160156 2.367188 -0.976562 2.296875 -0.8125 C 2.222656 -0.644531 2.125 -0.503906 2 -0.390625 C 1.875 -0.265625 1.726562 -0.171875 1.5625 -0.109375 C 1.382812 -0.0351562 1.203125 0 1.015625 0 L 0.296875 0 L 0.296875 -2.71875 L 1.015625 -2.71875 C 1.203125 -2.71875 1.382812 -2.6875 1.5625 -2.625 C 1.726562 -2.550781 1.875 -2.457031 2 -2.34375 C 2.125 -2.21875 2.222656 -2.070312 2.296875 -1.90625 C 2.367188 -1.738281 2.40625 -1.554688 2.40625 -1.359375 Z M 2.140625 -1.359375 C 2.140625 -1.671875 2.03125 -1.929688 1.8125 -2.140625 C 1.59375 -2.335938 1.328125 -2.4375 1.015625 -2.4375 L 0.578125 -2.4375 L 0.578125 -0.28125 L 1.015625 -0.28125 C 1.328125 -0.28125 1.59375 -0.378906 1.8125 -0.578125 C 2.03125 -0.785156 2.140625 -1.046875 2.140625 -1.359375 Z M 2.140625 -1.359375 "/></g></g></g><g fill="#000000" fill-opacity="1"><g transform="translate(21.055341, 12.029674)"><g/></g></g><g fill="#000000" fill-opacity="1"><g transform="translate(22.134771, 12.029674)"><g><path d="M 0.734375 -1 L 1.734375 -1 L 1.234375 -2.25 Z M 2.421875 0 L 2.125 0 L 1.828125 -0.734375 L 0.640625 -0.734375 L 0.34375 0 L 0.046875 0 L 1.234375 -2.90625 Z M 2.421875 0 "/></g></g></g><g fill="#000000" fill-opacity="1"><g transform="translate(24.601471, 12.029674)"><g><path d="M 1.921875 -2.453125 L 0.578125 -2.453125 L 0.578125 -1.484375 L 1.875 -1.484375 L 1.875 -1.234375 L 0.578125 -1.234375 L 0.578125 0 L 0.296875 0 L 0.296875 -2.71875 L 1.921875 -2.71875 Z M 1.921875 -2.453125 "/></g></g></g><g fill="#000000" fill-opacity="1"><g transform="translate(26.596417, 12.029674)"><g><path d="M 0.578125 -1.34375 L 1.21875 -1.34375 C 1.375 -1.34375 1.5 -1.394531 1.59375 -1.5 C 1.695312 -1.613281 1.75 -1.75 1.75 -1.90625 C 1.75 -2.0625 1.703125 -2.191406 1.609375 -2.296875 C 1.503906 -2.398438 1.375 -2.453125 1.21875 -2.453125 L 0.578125 -2.453125 Z M 2.03125 -1.90625 C 2.03125 -1.664062 1.945312 -1.46875 1.78125 -1.3125 C 1.632812 -1.164062 1.457031 -1.085938 1.25 -1.078125 L 2.078125 0 L 1.703125 0 L 0.90625 -1.078125 L 0.578125 -1.078125 L 0.578125 0 L 0.296875 0 L 0.296875 -2.71875 L 1.171875 -2.71875 C 1.410156 -2.71875 1.613281 -2.640625 1.78125 -2.484375 C 1.945312 -2.328125 2.03125 -2.132812 2.03125 -1.90625 Z M 2.03125 -1.90625 "/></g></g></g><g fill="#000000" fill-opacity="1"><g transform="translate(28.77127, 12.029674)"><g><path d="M 0.578125 0 L 0.296875 0 L 0.296875 -2.71875 L 0.578125 -2.71875 Z M 0.578125 0 "/></g></g></g><g fill="#000000" fill-opacity="1"><g transform="translate(29.650805, 12.029674)"><g><path d="M 2.796875 -0.828125 C 2.691406 -0.566406 2.523438 -0.359375 2.296875 -0.203125 C 2.066406 -0.0351562 1.8125 0.046875 1.53125 0.046875 C 1.15625 0.046875 0.835938 -0.09375 0.578125 -0.375 C 0.316406 -0.644531 0.1875 -0.972656 0.1875 -1.359375 C 0.1875 -1.546875 0.21875 -1.722656 0.28125 -1.890625 C 0.351562 -2.054688 0.453125 -2.207031 0.578125 -2.34375 C 0.835938 -2.613281 1.15625 -2.75 1.53125 -2.75 C 1.8125 -2.75 2.066406 -2.671875 2.296875 -2.515625 C 2.523438 -2.359375 2.691406 -2.148438 2.796875 -1.890625 L 2.484375 -1.890625 C 2.335938 -2.160156 2.117188 -2.335938 1.828125 -2.421875 C 1.734375 -2.453125 1.625 -2.46875 1.5 -2.46875 C 1.375 -2.46875 1.242188 -2.4375 1.109375 -2.375 C 0.984375 -2.3125 0.867188 -2.234375 0.765625 -2.140625 C 0.554688 -1.921875 0.453125 -1.660156 0.453125 -1.359375 C 0.453125 -1.054688 0.554688 -0.796875 0.765625 -0.578125 C 0.984375 -0.359375 1.238281 -0.25 1.53125 -0.25 C 1.738281 -0.25 1.925781 -0.300781 2.09375 -0.40625 C 2.257812 -0.507812 2.390625 -0.648438 2.484375 -0.828125 Z M 2.796875 -0.828125 "/></g></g></g><g fill="#000000" fill-opacity="1"><g transform="translate(32.393359, 12.029674)"><g><path d="M 0.734375 -1 L 1.734375 -1 L 1.234375 -2.25 Z M 2.421875 0 L 2.125 0 L 1.828125 -0.734375 L 0.640625 -0.734375 L 0.34375 0 L 0.046875 0 L 1.234375 -2.90625 Z M 2.421875 0 "/></g></g></g></g></g></g></g></g></g></mask><clipPath id="ec7686cc11"><path d="M 0.28125 0.371094 L 42.925781 0.371094 L 42.925781 21.023438 L 0.28125 21.023438 Z M 0.28125 0.371094 " clip-rule="nonzero"/></clipPath><clipPath id="8fe3ca3b0a"><rect x="0" width="43" y="0" height="22"/></clipPath><clipPath id="111404f954"><rect x="0" width="43" y="0" height="22"/></clipPath><clipPath id="000702a2a1"><rect x="0" width="44" y="0" height="22"/></clipPath></defs><g clip-path="url(#a594a34fad)"><g transform="matrix(1, 0, 0, 1, 0, -0.000000000000000847)"><g clip-path="url(#10f52f90c8)"><g clip-path="url(#ac68218a3c)"><g mask="url(#6185870a1b)"><g transform="matrix(1, 0, 0, 1, 0, -0.000000000000000847)"><g clip-path="url(#2ed00b94ca)"><g clip-path="url(#393ffe3366)"><path fill="url(#617aeb9eb6)" d="M 0 0.0195312 L 0 74.980469 L 224.761719 74.980469 L 224.761719 0.0195312 Z M 0 0.0195312 " fill-rule="nonzero"/></g></g></g></g></g></g></g></g><g transform="matrix(1, 0, 0, 1, 174, 47)"><g clip-path="url(#000702a2a1)"><g clip-path="url(#fe359adff4)"><g transform="matrix(1, 0, 0, 1, 0.000000000000028422, 0.000000000000007105)"><g clip-path="url(#111404f954)"><g clip-path="url(#196a29cd52)"><g mask="url(#a1f1e4e072)"><g transform="matrix(1, 0, 0, 1, 0.000000000000028422, 0.000000000000007105)"><g clip-path="url(#8fe3ca3b0a)"><g clip-path="url(#ec7686cc11)"><path fill="url(#95b63cb3e3)" d="M 0.28125 0.371094 L 0.28125 21.023438 L 42.925781 21.023438 L 42.925781 0.371094 Z M 0.28125 0.371094 " fill-rule="nonzero"/></g></g></g></g></g></g></g></g></g></g></svg>